<svg xmlns="http://www.w3.org/2000/svg" x="0px" y="0px" width="50" height="50" viewBox="0 0 48 48">
<path d="M 13.578125 3.0019531 C 10.090313 2.9697249 7.0702637 5.0676262 5.734375 8.0664062 L 3.2675781 8.6835938 C 2.5225781 8.8695937 2 9.5386406 2 10.306641 C 2 10.750641 2.1762344 11.177234 2.4902344 11.490234 L 5.296875 14.296875 C 5.4440029 14.927839 5.6395178 15.518739 5.9179688 16.054688 C 6.4251087 17.030804 7.213968 17.750378 8.09375 18.333984 C 8.3536941 28.204167 12.729536 34.148964 17.740234 36.919922 C 17.871293 36.992398 18.003192 37.054607 18.134766 37.123047 A 1.50015 1.50015 0 0 0 18.158203 37.169922 L 20.574219 42 L 16.5 42 A 1.50015 1.50015 0 1 0 16.5 45 L 23 45 A 1.50015 1.50015 0 0 0 24.341797 42.830078 L 22.246094 38.640625 C 23.325556 38.88807 24.380679 39.024974 25.375 39.052734 C 27.261094 39.105394 28.843163 38.724912 30.167969 38.011719 L 41.666016 43.759766 C 43.601234 44.727375 46 43.243283 46 41.080078 C 46 40.332374 45.717864 39.610171 45.212891 39.058594 L 36.904297 29.816406 C 36.636286 22.707291 32.626883 18.197401 28.714844 15.640625 C 26.691466 14.318214 24.702759 13.45159 23.257812 12.865234 C 22.627446 12.609433 22.163523 12.428332 21.8125 12.28125 C 21.962899 7.4944413 18.564171 3.0470553 13.578125 3.0019531 z M 13.550781 6 C 17.019894 6.031381 19.453252 9.3783811 18.90625 12.925781 C 18.858612 13.235971 18.915311 13.511763 19.003906 13.738281 C 16.036077 15.053888 14 18.002915 14 21.5 C 14 25.763286 17.227447 28.698896 20.558594 30.453125 C 23.88974 32.207354 27.390375 33 29.5 33 A 1.50015 1.50015 0 1 0 29.5 30 C 28.295625 30 24.797385 29.292646 21.957031 27.796875 C 19.116678 26.301104 17 24.236714 17 21.5 C 17 18.25 19.25 16 22.5 16 A 1.50015 1.50015 0 0 0 22.873047 15.957031 C 24.124897 16.49001 25.600979 17.189485 27.074219 18.152344 C 30.616214 20.467272 34 24.044393 34 30.5 A 1.50015 1.50015 0 0 0 34.384766 31.503906 L 42.982422 41.064453 L 30.900391 35.023438 A 1.50015 1.50015 0 0 0 29.265625 35.216797 C 28.82288 35.588916 27.335841 36.105135 25.458984 36.052734 C 23.582127 36.000334 21.325752 35.475232 19.191406 34.294922 C 14.922715 31.934301 11 27.075 11 17.5 A 1.50015 1.50015 0 0 0 10.169922 16.158203 C 9.3844054 15.765445 8.9313506 15.344227 8.5820312 14.671875 C 8.232712 13.999523 8 12.999031 8 11.5 C 8 8.427072 10.469944 5.9715323 13.550781 6 z M 12.5 9 A 1.5 1.5 0 0 0 12.5 12 A 1.5 1.5 0 0 0 12.5 9 z"></path>
</svg>