<svg xmlns="http://www.w3.org/2000/svg" x="0px" y="0px" width="50" height="50" viewBox="0 0 48 48"
style="fill:#FFFFFF;">
<path d="M 26.460938 4.4667969 C 24.6688 4.5256503 23 5.9834762 23 7.9453125 L 23 14.707031 C 23 15.158065 23.185527 15.560572 23.242188 16 L 21.5 16 C 15.933469 16 10.992773 18.808053 8 23.068359 L 8 19.5 C 8 16.516438 9.0018381 13.573992 10.689453 11.447266 C 12.377068 9.3205386 14.667336 8 17.5 8 A 1.50015 1.50015 0 1 0 17.5 5 C 13.705664 5 10.495479 6.8655079 8.3398438 9.5820312 C 6.1842088 12.298555 5 15.856562 5 19.5 L 5 32.5 A 1.50015 1.50015 0 0 0 5.0078125 32.669922 C 5.0919812 38.37413 9.3630414 43.083731 14.875 43.871094 A 1.50015 1.50015 0 0 0 15.5 44 L 39.5 44 C 41.414955 44 43 42.414955 43 40.5 C 43 38.35774 41.763642 36.482488 39.957031 35.580078 L 39.955078 35.578125 C 39.317348 35.258535 34.203559 32.890021 34.017578 24.933594 C 39.039371 24.416036 43 20.158188 43 14.998047 L 43 7.9453125 C 43 5.3292344 40.034424 3.610144 37.763672 4.9082031 A 1.50015 1.50015 0 0 0 37.400391 5.1972656 L 34.837891 8 L 31.160156 8 L 28.599609 5.1972656 A 1.50015 1.50015 0 0 0 28.236328 4.9082031 C 27.668517 4.5836182 27.058316 4.4471791 26.460938 4.4667969 z M 39.582031 7.4433594 C 39.653662 7.4346375 39.720497 7.4408387 39.775391 7.4726562 C 39.91288 7.5523475 40 7.7173516 40 7.9453125 L 40 14.998047 C 40 19.037155 36.641707 22.250878 32.53125 21.984375 C 28.833978 21.744601 26 18.479448 26 14.707031 L 26 7.9453125 C 26 7.5370359 26.298232 7.3777405 26.642578 7.5039062 L 29.392578 10.511719 A 1.50015 1.50015 0 0 0 30.5 11 L 35.5 11 A 1.50015 1.50015 0 0 0 36.607422 10.511719 L 39.357422 7.5039062 C 39.433972 7.4757263 39.5104 7.4520812 39.582031 7.4433594 z M 29.5 13 A 1.5 1.5 0 0 0 29.5 16 A 1.5 1.5 0 0 0 29.5 13 z M 36.5 13 A 1.5 1.5 0 0 0 36.5 16 A 1.5 1.5 0 0 0 36.5 13 z M 23.976562 18.927734 C 25.274837 21.845665 27.812338 24.1272 31.013672 24.796875 C 31.157939 34.249475 37.937946 37.923034 38.613281 38.261719 A 1.50015 1.50015 0 0 0 38.615234 38.261719 C 39.433208 38.669795 40 39.507255 40 40.5 C 40 40.795045 39.795045 41 39.5 41 L 28.947266 41 C 28.97265 40.831595 29 40.663133 29 40.488281 C 29 37.953873 27.24746 35.80631 24.898438 35.185547 C 24.253002 30.575345 20.281986 27 15.5 27 L 14.5 27 A 1.50015 1.50015 0 1 0 14.5 30 L 15.5 30 C 19.073591 30 21.940885 32.840187 21.994141 36.400391 A 1.50015 1.50015 0 0 0 22.103516 37.070312 A 1.50015 1.50015 0 0 0 22.111328 37.091797 A 1.50015 1.50015 0 0 0 22.132812 37.138672 A 1.50015 1.50015 0 0 0 23.646484 38.013672 C 24.972466 38.083386 26 39.142364 26 40.488281 C 26 40.7883 25.78747 41 25.488281 41 L 16.5 41 C 11.78761 41 8 37.21239 8 32.5 C 8 25.068182 14.068182 19 21.5 19 L 23.5 19 A 1.50015 1.50015 0 0 0 23.976562 18.927734 z"></path>
</svg>