<svg xmlns="http://www.w3.org/2000/svg" x="0px" y="0px" width="50" height="50" viewBox="0 0 48 48">
<path d="M 24 3.5 C 20.769283 3.5 17.30996 4.1197589 14.25 5.4648438 A 1.50015 1.50015 0 0 0 13.716797 5.84375 C 9.0742203 8.039001 5.0350885 11.905145 2.5214844 15.080078 A 1.50015 1.50015 0 0 0 2.4980469 15.111328 C 0.42846518 17.868824 -0.40644922 21.774153 1.3203125 25.082031 L 5.0585938 32.240234 C 6.0230416 34.086908 8.0922491 34.784141 9.7871094 34.378906 C 11.019809 34.084172 12.156472 33.168991 12.689453 31.892578 C 13.224083 33.021634 13.740577 34.012873 14.125 34.898438 A 1.50015 1.50015 0 0 0 14.125 34.900391 C 15.433457 37.913715 16.285149 39.882336 17.810547 41.259766 C 19.335945 42.637148 21.336336 43 24 43 C 26.822169 43 28.823778 42.539676 30.271484 41.123047 C 31.719191 39.706417 32.47211 37.799859 33.849609 34.955078 C 34.24488 34.138323 34.811462 33.066887 35.400391 31.789062 C 35.912397 33.12121 37.084861 34.076043 38.351562 34.378906 C 40.046424 34.784141 42.11563 34.086908 43.080078 32.240234 L 46.818359 25.082031 C 48.545121 21.774153 47.710207 17.868824 45.640625 15.111328 A 1.50015 1.50015 0 0 0 45.617188 15.080078 C 43.152652 11.967202 39.21991 8.1940588 34.691406 5.9785156 A 1.50015 1.50015 0 0 0 34.306641 5.71875 C 31.114697 4.1954704 27.427764 3.5 24 3.5 z M 24 6.5 C 26.286426 6.5 28.741797 6.8714961 30.970703 7.6113281 A 1.50015 1.50015 0 0 0 31.40625 7.8417969 C 35.967209 9.4268366 40.65898 13.660474 43.246094 16.921875 C 44.715613 18.88585 45.227895 21.6442 44.158203 23.693359 L 40.419922 30.851562 C 40.08237 31.497889 39.589468 31.590203 39.048828 31.460938 C 38.508791 31.331816 38.129754 31.042074 38.128906 30.322266 L 38.128906 30.320312 L 38.138672 17.476562 A 1.50015 1.50015 0 1 0 35.138672 17.474609 L 35.136719 19.564453 A 1.50015 1.50015 0 0 0 35.117188 19.830078 C 35.117188 26.624642 32.567297 30.720657 31.150391 33.648438 C 30.600023 34.785044 30.194497 35.59524 29.792969 36.376953 C 29.526054 36.442287 29.2114 36.5 28.8125 36.5 C 27.812814 36.5 26.479991 36.098892 25 34.537109 L 25 30.380859 C 26.72219 30.009207 28 28.719446 28 27.167969 C 28 26.938969 27.972922 26.716 27.919922 26.5 L 20.080078 26.5 C 20.027078 26.715 20 26.938969 20 27.167969 C 20 28.719446 21.27781 30.009207 23 30.380859 L 23 34.537109 C 21.520009 36.098892 20.187186 36.5 19.1875 36.5 C 18.735121 36.5 18.38033 36.428777 18.099609 36.351562 C 17.731462 35.610886 17.338183 34.771771 16.875 33.705078 C 15.428479 30.372842 13.235884 27.461861 13.003906 21.132812 L 13 17.474609 A 1.50015 1.50015 0 1 0 10 17.476562 L 10.001953 19.533203 A 1.50015 1.50015 0 0 0 9.984375 19.771484 C 9.9816019 20.170387 9.9925967 20.551786 10.003906 20.931641 L 10.011719 30.322266 C 10.010871 31.042074 9.6298813 31.331815 9.0898438 31.460938 C 8.5492029 31.590155 8.0563021 31.497889 7.71875 30.851562 L 3.9804688 23.693359 C 2.9107768 21.6442 3.4230592 18.88585 4.8925781 16.921875 C 7.4796917 13.660474 12.171463 9.4268366 16.732422 7.8417969 A 1.50015 1.50015 0 0 0 17.255859 7.5390625 C 19.423842 6.8476982 21.790242 6.5 24 6.5 z M 18 15 A 2 2 0 0 0 18 19 A 2 2 0 0 0 18 15 z M 30 15 A 2 2 0 0 0 30 19 A 2 2 0 0 0 30 15 z M 24 36.236328 C 25.597189 37.718286 27.241879 38.408681 28.568359 38.484375 C 28.435514 38.663165 28.30154 38.855498 28.173828 38.980469 C 27.408785 39.729089 26.549831 40 24 40 C 21.573664 40 20.624118 39.757273 19.822266 39.033203 C 19.665483 38.891629 19.505385 38.704209 19.341797 38.490234 C 20.683099 38.441463 22.366844 37.751659 24 36.236328 z"></path>
</svg>