<svg xmlns="http://www.w3.org/2000/svg" x="0px" y="0px" width="50" height="50" viewBox="0 0 48 48">
<path d="M 8.5253906 3 A 1.50015 1.50015 0 0 0 7.0175781 4.2714844 C 7.0175781 4.2714844 6.5 7.6018519 6.5 11.125 C 6.5 12.886574 6.6162172 14.699607 7.0546875 16.289062 C 7.3753106 17.451322 7.9340582 18.632731 8.9003906 19.359375 C 8.1752365 20.804563 7.6137977 22.339452 7.2441406 23.941406 L 6.0390625 29.162109 A 1.50015 1.50015 0 0 0 6.9882812 30.910156 L 13.101562 33.132812 C 14.870294 33.775777 16.123199 35.35243 16.349609 37.220703 C 16.817555 41.077469 20.113503 44 24 44 C 27.885735 44 31.18248 41.077873 31.650391 37.220703 C 31.876801 35.35243 33.129706 33.775777 34.898438 33.132812 L 41.011719 30.910156 A 1.50015 1.50015 0 0 0 41.980469 29.253906 L 41.386719 25.693359 C 41.00964 23.429623 40.254329 21.274421 39.183594 19.298828 C 40.103658 18.579561 40.661659 17.457612 41.009766 16.335938 C 41.500436 14.754888 41.682834 12.940424 41.748047 11.179688 C 41.878472 7.6582121 41.490234 4.328125 41.490234 4.328125 A 1.50015 1.50015 0 0 0 39.933594 3.0019531 A 1.50015 1.50015 0 0 0 39.677734 3.0351562 C 39.677734 3.0351562 36.608563 3.7074039 33.492188 4.8300781 C 31.934 5.3914184 30.358471 6.0581669 29.066406 6.8847656 C 28.098602 7.5039186 27.140523 8.2518438 26.720703 9.3164062 C 25.759587 9.1075453 24.775525 9 23.783203 9 C 23.08402 9 22.389133 9.0594821 21.703125 9.1640625 C 21.254366 8.1826125 20.352872 7.4728737 19.433594 6.8847656 C 18.141529 6.0581669 16.566001 5.3914152 15.007812 4.8300781 C 11.891438 3.7074039 8.8222656 3.0351562 8.8222656 3.0351562 A 1.50015 1.50015 0 0 0 8.5253906 3 z M 9.8515625 6.4511719 C 10.87751 6.7022118 11.938679 6.9145207 13.992188 7.6542969 C 15.433999 8.1737098 16.858471 8.7973175 17.816406 9.4101562 C 18.17368 9.6387218 18.404148 9.8435028 18.583984 10.023438 C 17.896769 10.302869 17.228101 10.632088 16.589844 11.021484 L 16.587891 11.023438 C 16.586091 11.024537 16.583831 11.024265 16.582031 11.025391 L 16.537109 11.054688 A 1.50015 1.50015 0 0 0 16.529297 11.058594 C 14.123516 12.528456 12.075695 14.465075 10.480469 16.722656 C 10.305229 16.487545 10.116355 16.112215 9.9453125 15.492188 C 9.6337828 14.362892 9.5 12.738426 9.5 11.125 C 9.5 8.7672167 9.7127899 7.5338328 9.8515625 6.4511719 z M 38.578125 6.4726562 C 38.676155 7.5774304 38.837875 8.7504303 38.751953 11.070312 C 38.692163 12.684575 38.499564 14.307612 38.146484 15.445312 C 37.947301 16.087126 37.730052 16.478372 37.533203 16.722656 C 36.041968 14.744404 34.190328 13.030763 32.044922 11.6875 L 31.115234 11.105469 A 1.50015 1.50015 0 0 0 31.115234 11.103516 C 30.641759 10.807211 30.148997 10.547918 29.646484 10.3125 C 29.778913 10.130697 30.029157 9.8288322 30.683594 9.4101562 C 31.641529 8.7973174 33.066001 8.1737098 34.507812 7.6542969 C 36.526309 6.9271334 37.534731 6.7291585 38.578125 6.4726562 z M 23.783203 12 C 25.81294 12 27.803078 12.571785 29.523438 13.648438 L 30.453125 14.230469 C 34.70074 16.889949 37.604207 21.241617 38.427734 26.185547 L 38.814453 28.515625 L 33.873047 30.314453 C 31.047777 31.341489 29.035417 33.875649 28.673828 36.859375 C 28.385739 39.234205 26.392265 41 24 41 C 21.606497 41 19.614299 39.234519 19.326172 36.859375 C 18.964583 33.875649 16.952223 31.341489 14.126953 30.314453 L 9.2597656 28.544922 L 10.166016 24.617188 C 11.222904 20.037032 14.07814 16.075493 18.087891 13.623047 L 18.140625 13.589844 A 1.50015 1.50015 0 0 0 18.146484 13.585938 C 19.844151 12.548687 21.794141 12 23.783203 12 z M 17.5 23 A 1.5 1.5 0 0 0 17.5 26 A 1.5 1.5 0 0 0 17.5 23 z M 30.5 23 A 1.5 1.5 0 0 0 30.5 26 A 1.5 1.5 0 0 0 30.5 23 z M 22.070312 33.273438 C 21.510545 33.230111 21 33.671703 21 34.267578 C 21 34.645578 21.212781 34.991156 21.550781 35.160156 L 23 35.884766 C 23 36.436766 23.448 36.884766 24 36.884766 C 24.552 36.884766 25 36.436766 25 35.884766 L 26.449219 35.160156 C 26.787219 34.991156 27 34.645578 27 34.267578 C 27 33.586578 26.3335 33.107266 25.6875 33.322266 C 24.5925 33.687266 23.4085 33.687266 22.3125 33.322266 C 22.231875 33.295266 22.150279 33.279627 22.070312 33.273438 z"></path>
</svg>