<svg xmlns="http://www.w3.org/2000/svg" x="0px" y="0px" width="50" height="50" viewBox="0 0 48 48">
<path d="M 14.5 3 C 12.25 3 10.42263 4.5369533 9.1269531 6.4804688 C 7.8312761 8.4239841 7 10.916667 7 13.5 C 7 16.138889 8.1018053 18.110408 9.4101562 19.341797 C 9.8983993 19.80132 10.401594 20.142973 10.892578 20.4375 C 9.372906 22.17377 8 24.858461 8 28.5 C 8 28.985939 8.0483596 29.489827 8.1210938 30 L 3 30 A 1.0001 1.0001 0 1 0 3 32 L 8.5800781 32 C 8.8962895 33.005601 9.34076 34.016614 9.9160156 35 L 5 35 A 1.0001 1.0001 0 1 0 5 37 L 11.306641 37 C 13.164287 39.274818 15.791288 41.190252 19.146484 42.181641 C 19.325625 42.982574 19.676823 43.753124 20.253906 44.402344 C 21.112148 45.367867 22.458334 46 24 46 C 25.541666 46 26.887852 45.367867 27.746094 44.402344 C 28.323177 43.753124 28.674375 42.982574 28.853516 42.181641 C 32.208712 41.190252 34.835713 39.274818 36.693359 37 L 43 37 A 1.0001 1.0001 0 1 0 43 35 L 38.083984 35 C 38.65924 34.016614 39.10371 33.005601 39.419922 32 L 45 32 A 1.0001 1.0001 0 1 0 45 30 L 39.878906 30 C 39.95164 29.489827 40 28.985939 40 28.5 C 40 24.858461 38.627094 22.17377 37.107422 20.4375 C 37.598406 20.142973 38.101601 19.80132 38.589844 19.341797 C 39.898195 18.110408 41 16.138889 41 13.5 C 41 10.916667 40.168724 8.4239841 38.873047 6.4804688 C 37.57737 4.5369533 35.75 3 33.5 3 C 32.25 3 31.206974 3.6856107 30.535156 4.4414062 C 29.863338 5.1972018 29.42311 6.0502639 29.033203 6.8300781 C 28.643296 7.6098924 28.30153 8.3279783 28.033203 8.7304688 C 27.902139 8.9270641 27.83692 8.9907738 27.828125 9.0097656 A 1.50015 1.50015 0 0 0 27.648438 9.0390625 C 27.423426 9.0148675 27.205474 9 27 9 C 25.650124 9 24.679215 9.4129181 24 9.7792969 C 23.320785 9.4129181 22.349876 9 21 9 C 20.794526 9 20.576574 9.0148675 20.351562 9.0390625 A 1.50015 1.50015 0 0 0 20.173828 9.0097656 C 20.16542 8.9910446 20.098298 8.9277232 19.966797 8.7304688 C 19.69847 8.3279784 19.356704 7.6098924 18.966797 6.8300781 C 18.576887 6.0502639 18.136662 5.1972018 17.464844 4.4414062 C 16.793026 3.6856107 15.75 3 14.5 3 z M 14.5 6 C 14.75 6 14.894474 6.064389 15.222656 6.4335938 C 15.550838 6.8027982 15.92311 7.4497361 16.283203 8.1699219 C 16.589533 8.7825823 16.90122 9.4350698 17.279297 10.0625 C 16.68793 10.391824 16.090505 10.797267 15.505859 11.314453 C 13.96268 12.679573 12.685159 14.832496 12.232422 17.748047 C 11.967642 17.576487 11.706515 17.385659 11.464844 17.158203 C 10.648195 16.389592 10 15.361111 10 13.5 C 10 11.583333 10.668724 9.5760159 11.623047 8.1445312 C 12.57737 6.7130468 13.75 6 14.5 6 z M 33.5 6 C 34.25 6 35.42263 6.7130468 36.376953 8.1445312 C 37.331276 9.5760159 38 11.583333 38 13.5 C 38 15.361111 37.351805 16.389592 36.535156 17.158203 C 36.293485 17.385659 36.032358 17.576487 35.767578 17.748047 C 35.314841 14.832496 34.03732 12.679573 32.494141 11.314453 C 31.909495 10.797267 31.31207 10.391824 30.720703 10.0625 C 31.09878 9.4350698 31.410467 8.7825823 31.716797 8.1699219 C 32.07689 7.4497361 32.449162 6.8027982 32.777344 6.4335938 C 33.105526 6.0643893 33.25 6 33.5 6 z M 21 12 C 21.833333 12 23.167969 12.748047 23.167969 12.748047 A 1.50015 1.50015 0 0 0 24.832031 12.748047 C 24.832031 12.748047 26.166667 12 27 12 C 27.5 12 29.180458 12.388076 30.505859 13.560547 C 31.831261 14.733017 33 16.616667 33 20 A 1.5008464 1.5008464 0 0 0 33.007812 20.150391 A 1.5008464 1.5008464 0 0 0 33.025391 20.269531 A 1.50015 1.50015 0 0 0 33.041016 20.341797 A 1.5008464 1.5008464 0 0 0 33.056641 20.40625 A 1.50015 1.50015 0 0 0 33.074219 20.466797 A 1.5008464 1.5008464 0 0 0 33.119141 20.583984 A 1.5008464 1.5008464 0 0 0 33.181641 20.712891 A 1.50015 1.50015 0 0 0 33.189453 20.726562 A 1.5008464 1.5008464 0 0 0 33.248047 20.824219 A 1.50015 1.50015 0 0 0 33.279297 20.871094 A 1.5008464 1.5008464 0 0 0 33.34375 20.953125 A 1.50015 1.50015 0 0 0 33.365234 20.978516 A 1.5008464 1.5008464 0 0 0 33.445312 21.064453 A 1.50015 1.50015 0 0 0 33.464844 21.083984 A 1.5008464 1.5008464 0 0 0 33.558594 21.166016 A 1.50015 1.50015 0 0 0 33.585938 21.1875 A 1.5008464 1.5008464 0 0 0 33.658203 21.240234 A 1.5008464 1.5008464 0 0 0 33.667969 21.248047 C 34.655938 21.906693 37 24.555556 37 28.5 C 37 28.959664 36.937793 29.466767 36.822266 30 L 33 30 A 1.0001 1.0001 0 1 0 33 32 L 36.158203 32 C 35.719957 33.003384 35.11141 34.029165 34.330078 35 L 31 35 A 1.0001 1.0001 0 1 0 31 37 L 32.353516 37 C 31.296211 37.860857 30.055274 38.584345 28.642578 39.09375 C 28.436758 38.557909 28.14627 38.047854 27.746094 37.597656 C 26.887852 36.632133 25.541666 36 24 36 C 22.458334 36 21.112148 36.632133 20.253906 37.597656 C 19.85373 38.047854 19.563242 38.557909 19.357422 39.09375 C 17.944726 38.584345 16.703789 37.860857 15.646484 37 L 17 37 A 1.0001 1.0001 0 1 0 17 35 L 13.669922 35 C 12.88859 34.029165 12.280043 33.003384 11.841797 32 L 15 32 A 1.0001 1.0001 0 1 0 15 30 L 11.177734 30 C 11.062207 29.466767 11 28.959664 11 28.5 C 11 24.571796 13.3234 21.932009 14.318359 21.259766 C 14.318987 21.259342 14.319686 21.258235 14.320312 21.257812 A 1.5008464 1.5008464 0 0 0 14.332031 21.248047 A 1.50015 1.50015 0 0 0 14.441406 21.167969 A 1.5008464 1.5008464 0 0 0 14.453125 21.158203 A 1.50015 1.50015 0 0 0 14.552734 21.068359 A 1.5008464 1.5008464 0 0 0 14.5625 21.058594 A 1.50015 1.50015 0 0 0 14.654297 20.958984 A 1.5008464 1.5008464 0 0 0 14.664062 20.947266 A 1.50015 1.50015 0 0 0 14.744141 20.837891 A 1.5008464 1.5008464 0 0 0 14.751953 20.826172 A 1.50015 1.50015 0 0 0 14.769531 20.796875 A 1.5008464 1.5008464 0 0 0 14.828125 20.695312 A 1.5008464 1.5008464 0 0 0 14.890625 20.560547 A 1.5008464 1.5008464 0 0 0 14.974609 20.273438 A 1.5008464 1.5008464 0 0 0 14.994141 20.123047 A 1.5008464 1.5008464 0 0 0 15.001953 19.974609 C 15.008125 16.608167 16.172251 14.729909 17.494141 13.560547 C 18.819542 12.388076 20.5 12 21 12 z M 19 22 A 2 2 0 0 0 19 26 A 2 2 0 0 0 19 22 z M 29 22 A 2 2 0 0 0 29 26 A 2 2 0 0 0 29 22 z M 24 39 C 24.791666 39 25.195482 39.242867 25.503906 39.589844 C 25.81233 39.936821 26 40.458333 26 41 C 26 41.541667 25.81233 42.063179 25.503906 42.410156 C 25.195482 42.757133 24.791666 43 24 43 C 23.208334 43 22.804518 42.757133 22.496094 42.410156 C 22.18767 42.063179 22 41.541667 22 41 A 1.5005317 1.5005317 0 0 0 22 40.992188 C 22.001808 40.453343 22.189164 39.93514 22.496094 39.589844 C 22.804518 39.242867 23.208334 39 24 39 z"></path>
</svg>